<svg width="41" height="39" viewBox="0 0 41 39" fill="none" xmlns="http://www.w3.org/2000/svg">
<path d="M40.0234 18.1766L19.3625 0.244531C19.2039 0.107812 19.0016 0.03125 18.7883 0.03125H13.9484C13.5438 0.03125 13.3578 0.534375 13.6641 0.796875L32.8156 17.4219H0.8125C0.571875 17.4219 0.375 17.6187 0.375 17.8594V21.1406C0.375 21.3813 0.571875 21.5781 0.8125 21.5781H32.8102L13.6586 38.2031C13.3523 38.4711 13.5383 38.9688 13.943 38.9688H18.9469C19.0508 38.9688 19.1547 38.9305 19.2313 38.8594L40.0234 20.8234C40.2128 20.6588 40.3646 20.4555 40.4686 20.2272C40.5726 19.9989 40.6264 19.7509 40.6264 19.5C40.6264 19.2491 40.5726 19.0011 40.4686 18.7728C40.3646 18.5445 40.2128 18.3412 40.0234 18.1766Z" fill="white"/>
</svg>
