<svg width="41" height="39" viewBox="0 0 41 39" fill="none" xmlns="http://www.w3.org/2000/svg">
<path d="M0.976559 20.8234L21.6375 38.7555C21.7961 38.8922 21.9984 38.9688 22.2117 38.9688H27.0516C27.4562 38.9688 27.6422 38.4656 27.3359 38.2031L8.18437 21.5781L40.1875 21.5781C40.4281 21.5781 40.625 21.3813 40.625 21.1406V17.8594C40.625 17.6187 40.4281 17.4219 40.1875 17.4219L8.18984 17.4219L27.3414 0.796875C27.6477 0.528908 27.4617 0.03125 27.057 0.03125H22.0531C21.9492 0.03125 21.8453 0.0695305 21.7687 0.140625L0.976559 18.1766C0.787239 18.3412 0.635441 18.5445 0.531418 18.7728C0.427395 19.0011 0.373569 19.2491 0.373569 19.5C0.373569 19.7509 0.427395 19.9989 0.531418 20.2272C0.635441 20.4555 0.787239 20.6588 0.976559 20.8234Z" fill="white"/>
</svg>
